<svg width="512" height="512" xmlns="http://www.w3.org/2000/svg" data-name="Find Word">
 <title>Find-word</title>

 <g>
  <g stroke="null" id="svg_5">
   <path stroke="null" class="cls-1" d="m480.97232,454.58854a14.32636,14.32636 0 0 1 -20.04612,2.76994l-103.10846,-77.08178a2.52712,2.52712 0 0 1 -1.0792,-1.79866a2.46417,2.46417 0 0 1 0.51262,-2.03249l14.11952,-18.49027a2.698,2.698 0 0 1 2.21236,-1.0792a2.51813,2.51813 0 0 1 1.60081,0.55759l102.98255,76.95587a14.38932,14.38932 0 0 1 2.80592,20.22599l0,-0.02698z" fill="#00f26d" id="svg_1"/>
   <path stroke="null" class="cls-2" d="m480.97232,454.58854a14.32636,14.32636 0 0 1 -20.04612,2.76994l-103.10846,-77.08178a2.52712,2.52712 0 0 1 -1.0792,-1.79866a2.46417,2.46417 0 0 1 0.51262,-2.03249l14.11952,-18.49027a2.698,2.698 0 0 1 2.21236,-1.0792a2.51813,2.51813 0 0 1 1.60081,0.55759l102.98255,76.95587a14.38932,14.38932 0 0 1 2.80592,20.22599l0,-0.02698z" fill="#f1f2f2" id="svg_2"/>
   <path stroke="null" class="cls-3" d="m493.70687,413.53402l-102.97356,-76.95587a28.77864,28.77864 0 0 0 -27.28574,-3.89411l-41.13546,-29.83985a176.44002,176.44002 0 0 0 -285.25024,-207.60189c-58.98721,77.34258 -44.06729,188.28423 33.2753,247.3164a176.70083,176.70083 0 0 0 215.21923,-0.95329l45.37132,33.09543a28.6977,28.6977 0 0 0 11.30461,26.42239l103.14443,77.08178a40.36204,40.36204 0 1 0 48.33012,-64.653l0,-0.01799zm-205.26362,-135.06174c-1.25907,1.86162 -2.5541,3.67827 -3.93908,5.45895a133.73972,133.73972 0 0 1 -32.17811,30.26253c-46.54944,31.09891 -109.71855,30.96401 -156.67269,-4.8474c-59.11312,-45.00259 -70.50766,-129.74668 -25.46909,-188.81483a134.06348,134.06348 0 0 1 89.21377,-51.83752a136.90537,136.90537 0 0 1 18.22947,-1.2141a134.00052,134.00052 0 0 1 81.41656,27.59152c57.33244,43.68957 69.80618,124.67445 29.39918,183.40085zm192.52908,176.11626a14.32636,14.32636 0 0 1 -20.04612,2.76994l-103.10846,-77.08178a2.52712,2.52712 0 0 1 -1.0792,-1.79866a2.46417,2.46417 0 0 1 0.51262,-2.03249l14.11952,-18.49027a2.698,2.698 0 0 1 2.21236,-1.0792a2.51813,2.51813 0 0 1 1.60081,0.55759l102.98255,76.95587a14.38932,14.38932 0 0 1 2.80592,20.22599l0,-0.02698z" fill="#00fd7d" id="svg_3"/>
   <text stroke="null" class="cls-4" transform="matrix(0.924972 0 0 0.973653 63.3959 230.612)" font-size="84.88px" fill="#161515" font-family="sans-serif" letter-spacing="-0.01em" id="svg_4" font-weight="bold" font-style="normal" y="0.67162" x="-8.3331">WORD</text>
  </g>
 </g>
</svg>
